# xmcd
#
# Track frame offsets:
#	150
#	12939
#	22789
#	39711
#	54575
#	68392
#	78965
#	87784
#	97723
#	109994
#	118071
#	131310
#	140643
#	152353
#	164909
#	176692
#	190523
#	205213
#
# Disc length: 2861 seconds
#
# Revision: 1
# Processed by: cddbd v1.5.2PL0 Copyright (c) Steve Scherf et al.
# Submitted via: audiograbber 1.83.01
#
DISCID=de0b2b12
DTITLE=Willie Nelson - The Country Legend
DYEAR=2006
DGENRE=Country
TTITLE0=I just don't understand
TTITLE1=I don't sleep a wink
TTITLE2=I let my mind wander
TTITLE3=And so will you My Love
TTITLE4=Home is where you're happy
TTITLE5=I feel sorry for Him
TTITLE6=Why are you picking on My
TTITLE7=Broken promises
TTITLE8=I can't find the time
TTITLE9=Things to remember
TTITLE10=You'll always have someone
TTITLE11=One step beyond
TTITLE12=Touch Me
TTITLE13=Any old arms won't do
TTITLE14=End of understanding
TTITLE15=Last letter
TTITLE16=Face of a Fighter
TTITLE17=Building heartaches
EXTD=
EXTT0=
EXTT1=
EXTT2=
EXTT3=
EXTT4=
EXTT5=
EXTT6=
EXTT7=
EXTT8=
EXTT9=
EXTT10=
EXTT11=
EXTT12=
EXTT13=
EXTT14=
EXTT15=
EXTT16=
EXTT17=
PLAYORDER=
